<svg width="24" height="31" viewBox="0 0 24 31" fill="none" xmlns="http://www.w3.org/2000/svg">
<rect x="11.8398" y="21.6" width="8" height="8" transform="rotate(-30 11.8398 21.6)" fill="#FF0000"/>
<path d="M23.2803 25.416L20.9723 21.4184L16.3563 21.4184L14.0483 25.416L16.3563 29.4136L20.9723 29.4136L23.2803 25.416Z" fill="#FF0000"/>
<rect x="5.31201" y="17.6" width="8" height="8" transform="rotate(30 5.31201 17.6)" fill="#FF0000"/>
<path d="M10.0322 25.416L7.72423 21.4184L3.10823 21.4184L0.800227 25.416L3.10823 29.4136L7.72423 29.4136L10.0322 25.416Z" fill="#FF0000"/>
<circle cx="12" cy="12" r="12" fill="#A6A6A6"/>
<circle cx="12.0002" cy="12" r="8.8" fill="#8C8C8C"/>
<g clip-path="url(#clip0)">
<path d="M10.1559 2.42619C10.1202 2.44092 9.91545 2.50147 9.70094 2.56367C9.26382 2.68969 9.14194 2.73388 8.95344 2.8288C8.64144 2.98592 8.46757 3.1856 8.37657 3.49165L8.34082 3.60949L8.19294 3.70442C8.11007 3.75516 7.92319 3.8779 7.77532 3.9761C7.62744 4.0743 7.50069 4.15941 7.49094 4.16432C7.48282 4.16923 7.49257 4.15286 7.51207 4.12668C7.65669 3.93846 7.78994 3.68969 7.87282 3.45565C7.92482 3.30344 8.10357 2.62913 8.09057 2.62913C8.04832 2.62913 7.49744 2.98429 7.29594 3.14304C7.14807 3.25761 6.89294 3.51784 6.78732 3.65859C6.66707 3.82062 6.55169 4.04484 6.50619 4.21015C6.45744 4.38691 6.45744 4.60949 6.50782 4.75679L6.54357 4.86317L6.48832 4.91064C6.21532 5.14959 6.01382 5.34108 5.83344 5.53093L5.61732 5.75843L5.69694 5.60295C5.79282 5.41473 5.86107 5.21178 5.90982 4.96628C5.93907 4.81408 5.94557 4.72406 5.94557 4.45401C5.94719 4.1545 5.91632 3.69624 5.89194 3.64877C5.88544 3.63732 5.82207 3.70278 5.73594 3.81244C5.01282 4.71588 4.87632 4.96956 4.81619 5.51784C4.77719 5.88936 4.86494 6.39018 4.97219 6.40655C4.99332 6.40982 5.04857 6.37381 5.12332 6.31162L5.24194 6.21015L5.09732 6.40491C4.86007 6.72079 4.53832 7.22324 4.41807 7.46056C4.39532 7.50638 4.37419 7.53912 4.36932 7.53584C4.36607 7.53093 4.37094 7.48838 4.37907 7.43928C4.41157 7.2707 4.42457 6.99738 4.41157 6.78134C4.39207 6.46547 4.36282 6.34763 4.12394 5.59149C4.07357 5.43437 4.02807 5.29853 4.02157 5.29198C4.00857 5.27725 3.98582 5.34763 3.79407 5.95155C3.60069 6.5653 3.53569 6.82717 3.50157 7.14632C3.45769 7.54075 3.53244 7.84517 3.77619 8.28052L3.88344 8.47365L3.93057 8.41964C3.95657 8.39018 3.97282 8.37709 3.96794 8.39018C3.96307 8.40327 3.93057 8.48838 3.89482 8.58003C3.80869 8.7928 3.71607 9.06612 3.63969 9.32308C3.60719 9.43601 3.57632 9.53912 3.57144 9.55221C3.56657 9.5653 3.54544 9.50311 3.52594 9.41309C3.43657 9.02684 3.26269 8.6144 3.05632 8.3018C2.97344 8.17414 2.85482 7.98756 2.79469 7.88772C2.68582 7.70442 2.63382 7.63895 2.61432 7.65859C2.60782 7.66514 2.59644 7.80425 2.58994 7.96792C2.58182 8.13322 2.56882 8.37054 2.55907 8.49656C2.53632 8.83044 2.53957 9.36727 2.56719 9.56858C2.64194 10.1267 2.81094 10.4475 3.14732 10.6668C3.20257 10.7028 3.26432 10.7355 3.28544 10.7404C3.32932 10.7519 3.32932 10.7388 3.29844 11.0219C3.26919 11.2953 3.24157 11.7339 3.24157 11.9336V12.0809L3.15057 11.9106C2.97507 11.5784 2.68257 11.1398 2.48594 10.9155C2.38357 10.7993 1.84082 10.3542 1.80019 10.3542C1.78232 10.3542 1.77744 10.3656 1.78394 10.3902C1.80507 10.49 1.89769 10.9663 1.94319 11.2134C2.13169 12.2462 2.41607 12.783 2.96532 13.1463C3.08232 13.2232 3.28544 13.3362 3.31794 13.3411C3.31957 13.3411 3.33582 13.4409 3.35532 13.562C3.39919 13.8403 3.47232 14.1938 3.53244 14.4311C3.55844 14.5309 3.57469 14.6062 3.56819 14.5997C3.56169 14.5915 3.52269 14.5408 3.48207 14.4867C3.30007 14.2445 3.16032 14.1349 2.20969 13.4933C1.96594 13.3296 1.60844 13.1185 1.60357 13.1349C1.59707 13.1545 2.20157 14.3853 2.33969 14.634C2.50869 14.9352 2.59969 15.0596 2.79469 15.256C2.98969 15.454 3.21719 15.6177 3.42357 15.7126C3.62182 15.8026 3.87857 15.8861 3.96144 15.8861C4.01507 15.8861 4.03782 15.8926 4.03782 15.9074C4.03782 15.9679 4.50907 16.8681 4.66344 17.1054C4.68944 17.1447 4.67482 17.1365 4.58219 17.0612C4.40994 16.9221 4.20519 16.7977 3.89969 16.6471C3.56982 16.4851 3.39107 16.4213 2.99944 16.3198C2.83857 16.2789 2.62732 16.2167 2.53144 16.1823C2.25844 16.0841 2.25357 16.1021 2.48269 16.3804C2.57369 16.49 2.72482 16.6815 2.81744 16.8026C3.17657 17.2723 3.79244 17.8223 4.14019 17.981C4.28482 18.0465 4.58057 18.1349 4.77557 18.1692C4.90069 18.1921 4.98032 18.1954 5.13632 18.1872C5.24682 18.1823 5.35407 18.1709 5.37519 18.1627C5.41094 18.148 5.42719 18.161 5.54419 18.2969C5.82694 18.6242 6.23807 19.0285 6.55657 19.2936C6.61669 19.3427 6.57119 19.3247 6.30632 19.1889C5.94557 19.0056 5.91144 18.9957 5.40282 18.9237C4.57407 18.8059 3.63157 18.7306 3.63157 18.7813C3.63157 18.8043 3.72907 18.8812 4.07844 19.1349C4.68294 19.5751 4.94944 19.7372 5.28907 19.8681C5.76519 20.053 6.01219 20.1087 6.36969 20.1087C6.69307 20.1087 6.91894 20.0645 7.18707 19.9499C7.32032 19.8926 7.32032 19.891 7.29269 19.8583C7.27644 19.8403 7.31057 19.8566 7.36907 19.8959C7.67782 20.1054 8.38307 20.4867 8.70482 20.616C8.75682 20.6373 8.79582 20.657 8.79419 20.6602C8.79094 20.6635 8.71132 20.652 8.61869 20.6373C8.49357 20.6177 8.34894 20.6095 8.06782 20.6095C7.57382 20.6095 7.52344 20.616 6.50782 20.8108C6.32419 20.8452 6.05607 20.8959 5.91144 20.9221C5.76519 20.9466 5.64819 20.9745 5.65144 20.9827C5.65957 21.0056 6.91569 21.3804 7.13344 21.4245C7.44869 21.4884 7.65832 21.5047 8.03044 21.4949C8.65444 21.4786 9.02332 21.3558 9.36782 21.0514L9.52057 20.9172L9.73182 20.9777C9.97719 21.0481 10.3103 21.1234 10.5508 21.166L10.7182 21.1954L10.6012 21.2249C10.2924 21.3067 10.1169 21.3836 9.19719 21.8435C8.49844 22.1938 8.24657 22.3296 8.24657 22.3542C8.24657 22.3869 9.19394 22.3509 9.61157 22.3018C10.0779 22.2445 10.5866 22.0972 10.9847 21.9008C11.2236 21.783 11.4039 21.6373 11.5941 21.4131L11.6997 21.2871H12.0182H12.3367L12.5626 21.5015C12.9818 21.9008 13.0452 21.9352 13.7553 22.1512C14.2022 22.2871 14.2867 22.3002 15.1918 22.3607C15.8824 22.4065 15.9068 22.4049 15.8044 22.3182C15.7411 22.2642 15.3754 22.0776 15.2129 22.0154C15.0634 21.9597 14.9627 21.9074 14.7709 21.7863C14.4151 21.562 13.9048 21.3493 13.4352 21.2298C13.3702 21.2134 13.3182 21.1971 13.3214 21.1954C13.3231 21.1938 13.4709 21.1627 13.6497 21.125C13.9731 21.0596 14.3354 20.9646 14.5678 20.8877C14.6507 20.8599 14.6783 20.855 14.6539 20.873C14.6328 20.8861 14.6166 20.9155 14.6166 20.9352C14.6166 21.035 15.0147 21.2854 15.3624 21.4016C15.5899 21.4786 15.7914 21.5031 16.2091 21.5047C16.5146 21.5047 16.6056 21.4998 16.7616 21.4704C17.0752 21.4115 18.0778 21.1152 18.2452 21.0301C18.3037 21.0007 18.3004 20.9663 18.2371 20.945C18.1558 20.9205 17.5724 20.8043 17.2084 20.7404C16.4853 20.6144 16.0872 20.5735 15.8239 20.5997C15.5461 20.6275 15.2162 20.6864 15.0472 20.7388C14.8944 20.7846 14.9334 20.7617 15.1691 20.6668C15.2991 20.6144 15.5477 20.5015 15.7216 20.4147C16.8217 19.8697 17.7788 19.1087 18.6092 18.1185C18.6758 18.0399 18.6774 18.0383 18.6742 18.0874C18.6693 18.1529 18.7294 18.179 18.9082 18.1905C19.2754 18.2118 19.8214 18.0579 20.1416 17.8419C20.7054 17.4638 20.9654 17.2167 21.2644 16.7748C21.4042 16.5702 21.5927 16.3542 21.7471 16.2232C21.8039 16.1758 21.8088 16.143 21.7568 16.1349C21.7389 16.1332 21.6122 16.1627 21.4741 16.2036C21.3359 16.2445 21.1182 16.3034 20.9931 16.3345C20.7136 16.4049 20.5559 16.4638 20.2927 16.5899C19.9108 16.7732 19.5549 17.0056 19.3079 17.2298C19.1812 17.346 19.1779 17.3476 19.2251 17.2772C19.4396 16.9614 19.8019 16.2953 19.9384 15.9679C19.9628 15.909 19.9856 15.8583 19.9888 15.855C19.9921 15.8517 20.0099 15.8615 20.0278 15.8779C20.0554 15.9041 20.0701 15.9057 20.1481 15.8894C20.3821 15.8419 20.8029 15.6439 21.0272 15.4769C21.1994 15.3476 21.4058 15.1398 21.5033 14.9957C21.6544 14.7748 22.1159 13.8877 22.3174 13.4295C22.3987 13.2445 22.4149 13.1856 22.3857 13.1856C22.3516 13.1856 21.6317 13.6439 21.2287 13.9237C20.8533 14.1823 20.6356 14.3885 20.4584 14.6504C20.4162 14.7126 20.3804 14.7666 20.3788 14.7682C20.3756 14.7715 20.3999 14.6831 20.4292 14.5718C20.5218 14.2331 20.6258 13.7257 20.6697 13.3967C20.6778 13.3264 20.6811 13.3231 20.7233 13.3296C20.7542 13.3329 20.8094 13.3133 20.8939 13.2707C21.3132 13.0514 21.5781 12.7797 21.7877 12.3591C21.9518 12.0268 22.0331 11.7437 22.1468 11.107C22.1891 10.8779 22.2411 10.6226 22.2638 10.5391C22.3288 10.3051 22.3077 10.2773 22.1631 10.4C22.0233 10.5178 21.5228 11.0367 21.3294 11.2625C21.0727 11.5637 20.9183 11.8173 20.8062 12.1201L20.7607 12.2445L20.7591 12.0236C20.7591 11.6668 20.7022 10.9008 20.6664 10.747L20.6567 10.7061L20.6957 10.7421C20.7314 10.7748 20.7396 10.7748 20.7964 10.7552C20.8777 10.7273 21.0158 10.6177 21.1328 10.49C21.4383 10.1545 21.5732 9.52766 21.5261 8.66514C21.5066 8.29362 21.4594 7.67659 21.4481 7.63895C21.4334 7.58985 20.8793 8.52766 20.7103 8.88445C20.5673 9.19214 20.5494 9.28216 20.5462 9.71587L20.5446 10.0187L20.5056 9.86317C20.4259 9.5473 20.3642 9.32799 20.2927 9.10376C20.2131 8.85335 20.0034 8.30671 19.9287 8.15777C19.8491 7.99902 19.8767 8.02848 19.9791 8.21342C20.0879 8.40818 20.1221 8.43928 20.1822 8.4C20.3301 8.3018 20.5641 7.71751 20.5917 7.38036C20.5966 7.31489 20.5917 7.20524 20.5819 7.13486C20.5364 6.84353 20.3853 6.27725 20.2196 5.78298C20.1156 5.47038 20.0977 5.42782 20.0668 5.42782C20.0164 5.42782 19.7873 5.98429 19.7256 6.26252C19.6687 6.51129 19.6687 7.52766 19.7256 7.68151C19.7386 7.72079 19.7467 7.75188 19.7434 7.75188C19.7402 7.75188 19.6963 7.67332 19.6459 7.57676C19.3437 7.00884 18.9634 6.44746 18.5214 5.92046C18.3248 5.68478 17.8162 5.16923 17.6001 4.98429C17.4749 4.8779 17.4457 4.84517 17.4701 4.84026C17.5204 4.83208 17.5367 4.80916 17.5562 4.72897C17.5806 4.63404 17.5822 4.31653 17.5578 4.20851C17.5253 4.0563 17.4554 3.92209 17.2913 3.70115C17.1581 3.52111 16.8022 3.16759 16.6153 3.02848C16.4382 2.89591 16.0677 2.66187 16.0352 2.66187C16.0027 2.66187 16.0092 2.75843 16.0563 2.94501C16.1067 3.15123 16.2139 3.51293 16.2529 3.61113C16.3212 3.78298 16.4577 3.99247 16.6478 4.21997L16.7209 4.30671L16.6641 4.26907C16.5324 4.18232 16.4252 4.12177 16.0953 3.9401L15.7459 3.74861L15.7346 3.65041C15.6972 3.30671 15.4112 2.96956 14.9887 2.76988C14.8441 2.70115 13.9828 2.42946 13.8366 2.40655C13.7813 2.39673 13.7716 2.4 13.7716 2.42455C13.7716 2.49984 14.2184 3.07921 14.4784 3.34272C14.7271 3.59476 14.9822 3.73715 15.3251 3.81571L15.4924 3.85336L15.8629 4.11031C16.0969 4.27234 16.2156 4.36399 16.1847 4.35745C15.9442 4.30835 15.6744 4.30344 15.4258 4.34599C15.0033 4.41964 14.3273 4.63404 14.2591 4.71588C14.2168 4.76661 14.3306 4.7928 14.8294 4.84681C15.0391 4.86808 15.2974 4.89918 15.4047 4.91391C15.8272 4.96956 16.6998 4.95974 16.8834 4.89427C16.9614 4.86808 16.9549 4.86317 17.2621 5.1234C17.5334 5.3509 17.6212 5.43273 17.5822 5.41964C17.2296 5.29362 16.7063 5.2347 16.1993 5.26416C15.9214 5.27889 15.8353 5.29853 15.8353 5.34599C15.8353 5.382 15.8727 5.40655 16.0384 5.47692C16.1099 5.50638 16.3699 5.62586 16.6153 5.74043C17.3986 6.10376 17.6781 6.18887 18.2029 6.22324L18.3719 6.2347L18.4337 6.30998C18.5978 6.51129 18.9553 6.99902 18.9553 7.02357C18.9553 7.02848 18.9212 7.0072 18.8789 6.9761C18.7554 6.88772 18.4743 6.7437 18.2712 6.66677C17.7626 6.47201 17.1841 6.33944 17.1841 6.41637C17.1841 6.42946 17.2588 6.50638 17.3514 6.58658C17.6114 6.81407 18.3703 7.44419 18.5117 7.54894C18.8334 7.78953 19.2933 8.0563 19.4737 8.1054L19.5777 8.13486L19.6346 8.25925C19.7711 8.56203 20.0002 9.1725 19.9579 9.12668C19.6541 8.7928 19.4899 8.63895 19.3079 8.5162C18.9634 8.2838 18.3021 7.94664 18.2631 7.98429C18.2468 8.00229 18.3021 8.0874 18.4288 8.2347C18.6693 8.5162 18.8724 8.8108 19.0658 9.15941C19.1243 9.26252 19.2186 9.40982 19.2771 9.48511C19.4981 9.77152 19.9319 10.1692 20.1822 10.3165C20.2407 10.3509 20.2911 10.3902 20.2959 10.4033C20.3122 10.4573 20.3869 11.0187 20.4097 11.2707C20.4324 11.5178 20.4406 11.783 20.4227 11.7044C20.3674 11.4507 20.2001 11.0809 20.0619 10.9057C19.9319 10.7421 19.0268 9.81898 19.0106 9.83371C18.9846 9.86154 19.3599 11.0628 19.5241 11.4753C19.7256 11.9827 20.0083 12.4475 20.3122 12.7748L20.4129 12.8828L20.3999 13.0137C20.3626 13.382 20.2456 14.1005 20.2196 14.1283C20.2163 14.1316 20.2049 14.0579 20.1936 13.9663C20.1529 13.5997 20.0554 13.3444 19.7451 12.8026C19.4574 12.2969 19.2608 12.0007 19.2251 12.0121C19.1958 12.0219 19.1958 12.1692 19.2234 12.6373C19.2641 13.3394 19.3112 13.9155 19.3469 14.1594C19.3941 14.472 19.6053 14.9843 19.7889 15.2282L19.8653 15.3329L19.7743 15.5555C19.6346 15.8975 19.2186 16.7339 19.2706 16.5702C19.2754 16.5538 19.2884 16.4589 19.2982 16.3591C19.3258 16.0972 19.3079 15.6013 19.2641 15.3624C19.1341 14.6504 18.9586 14.1578 18.8692 14.2478C18.8594 14.2576 18.8432 14.3493 18.8318 14.454C18.8107 14.6357 18.7782 14.7944 18.6076 15.5473C18.4922 16.0579 18.4646 16.2396 18.4564 16.5457C18.4467 16.8763 18.4694 17.0367 18.5767 17.3476L18.6466 17.5588L18.5621 17.6668C18.3931 17.8845 17.9738 18.3738 17.9559 18.3738C17.9527 18.3738 17.9576 18.3493 17.9657 18.3198C18.0794 17.9221 18.1201 17.2674 18.0697 16.6226C18.0551 16.4196 18.0388 16.2527 18.0372 16.2494C18.0339 16.2462 17.9868 16.3345 17.9316 16.4458C17.7561 16.7912 17.4798 17.292 17.3693 17.4622C17.0557 17.945 16.9761 18.2134 16.9371 18.9368L16.9176 19.3067L16.6901 19.4671C16.4024 19.67 16.0141 19.9172 16.0011 19.9041C15.9978 19.9008 16.0206 19.8632 16.0514 19.819C16.2334 19.562 16.4268 19.1152 16.5259 18.7175C16.5698 18.5457 16.6527 18.0547 16.6446 18.0268C16.6364 18.0039 15.7687 18.8501 15.5314 19.1119C15.0196 19.6799 14.8684 19.9368 14.8051 20.3525L14.7856 20.4753L14.5434 20.5555C14.4086 20.5997 14.1908 20.6651 14.0559 20.6995L13.8122 20.7617L13.8853 20.7028C14.1583 20.4802 14.5288 20.0137 14.6978 19.6766C14.7514 19.5702 14.8262 19.3444 14.8278 19.2871C14.8278 19.2805 14.7417 19.3165 14.6377 19.3673C14.3679 19.4949 14.2444 19.5473 13.9097 19.675C13.3897 19.8714 13.1996 19.9892 12.9493 20.274C12.7218 20.5326 12.5772 20.7781 12.5902 20.8795L12.5983 20.9385L12.4992 20.9499C12.4456 20.9548 12.2051 20.9597 11.9662 20.9597C11.6363 20.9597 11.5274 20.9548 11.5177 20.9385C11.5112 20.9286 11.4722 20.8403 11.4299 20.7437C11.3893 20.6471 11.3292 20.526 11.2999 20.4753C11.0919 20.13 10.7767 19.9106 10.1478 19.675C9.80169 19.544 9.58394 19.4507 9.38894 19.3444C9.29632 19.2953 9.22157 19.2625 9.22157 19.2707C9.22157 19.3133 9.29632 19.5227 9.34669 19.6259C9.51894 19.9696 9.94632 20.5031 10.2161 20.711C10.2599 20.7437 10.2892 20.7732 10.2811 20.7764C10.2486 20.7863 9.55957 20.598 9.32719 20.5129L9.26219 20.49L9.25082 20.3705C9.21019 19.9777 9.06394 19.7126 8.61544 19.2249C8.50332 19.1038 8.18807 18.7748 7.91507 18.4966L7.41619 17.9892L7.42594 18.0628C7.49257 18.562 7.64369 19.1201 7.80944 19.4704C7.89557 19.6504 7.95244 19.7486 8.05644 19.8943L8.11982 19.981L8.04182 19.9352C7.73144 19.7568 7.15782 19.3787 7.13344 19.3394C7.12857 19.3329 7.13832 19.2658 7.15294 19.1905C7.23907 18.7306 7.02294 17.9696 6.62157 17.328C6.50619 17.1447 6.26082 16.6962 6.12432 16.4213C6.08532 16.3427 6.04632 16.2789 6.03819 16.2789C6.00569 16.2789 5.99107 17.5097 6.02032 17.8714C6.03982 18.1119 6.08044 18.2822 6.15032 18.4262L6.20069 18.5293L6.11619 18.4475C5.99269 18.3263 5.66932 17.9597 5.51819 17.7699L5.38819 17.6046L5.41907 17.5506C5.50519 17.4131 5.59294 16.999 5.60919 16.6619C5.62382 16.3509 5.57832 16.0514 5.38494 15.1905C5.26307 14.6553 5.20782 14.3656 5.20782 14.2674C5.20782 14.1954 5.18507 14.1512 5.15907 14.1774C5.14932 14.1872 5.11194 14.2625 5.07782 14.3444C4.91044 14.7372 4.70407 15.7552 4.72519 16.0907C4.73494 16.2249 4.80319 16.6733 4.82757 16.747C4.83244 16.765 4.79832 16.7159 4.75282 16.639C4.63582 16.4442 4.33357 15.8239 4.22632 15.5588L4.13857 15.3394L4.19382 15.2969C4.37419 15.161 4.63582 14.6259 4.69594 14.2691C4.76907 13.837 4.89094 12.107 4.85032 12.0661C4.80644 12.0219 4.57407 12.3493 4.29619 12.8501C3.98094 13.4196 3.88344 13.7241 3.86069 14.2085L3.85094 14.4376L3.81357 14.2822C3.72907 13.9336 3.64944 13.4786 3.61532 13.1529C3.60557 13.0579 3.59419 12.9597 3.59094 12.9336C3.58444 12.8926 3.58607 12.8894 3.60719 12.9074C3.64294 12.9368 3.67869 12.8992 3.89969 12.6046C4.13857 12.2838 4.34657 11.9712 4.41157 11.8337C4.46032 11.729 4.63257 11.2625 4.66832 11.1398C4.67644 11.1087 4.71544 10.9876 4.75119 10.8714C4.84869 10.5653 5.00794 10.0301 5.02582 9.94828C5.03557 9.91064 5.03557 9.87954 5.02907 9.87954C4.98844 9.87954 4.26857 10.5899 4.09957 10.7961C3.85257 11.0972 3.68194 11.4606 3.59094 11.8812C3.57469 11.9516 3.56007 12.0056 3.55682 12.0023C3.54544 11.9925 3.58282 11.3362 3.60557 11.1152C3.61857 10.9974 3.64457 10.7895 3.66569 10.652C3.69494 10.4507 3.70632 10.4033 3.72744 10.4033C3.76644 10.4033 3.87207 10.3378 4.04107 10.2118C4.42944 9.92046 4.71544 9.58658 5.21594 8.84026C5.34757 8.64223 5.53932 8.3689 5.64169 8.23306C5.74244 8.09722 5.82532 7.97447 5.82532 7.95974C5.82532 7.92373 5.77332 7.94173 5.57019 8.04484C5.19482 8.2347 4.64069 8.58167 4.45219 8.7437C4.33357 8.84681 4.15644 9.04975 4.04107 9.21506C4.00369 9.26907 3.97282 9.30835 3.97282 9.30344C3.97282 9.25106 4.21819 8.59476 4.34007 8.31489L4.41319 8.15123L4.50744 8.13159C4.67969 8.09558 5.07294 7.88445 5.45157 7.62586C5.71807 7.44255 5.88544 7.31162 6.14219 7.08085C6.25919 6.9761 6.44932 6.81407 6.56469 6.71751C6.81819 6.50966 6.86857 6.46056 6.86207 6.42782C6.85394 6.38691 6.69632 6.39836 6.45094 6.45728C5.92607 6.58331 5.49544 6.77152 5.13632 7.03011C5.06644 7.08085 4.99332 7.13322 4.97544 7.14632C4.90557 7.19705 5.41582 6.47201 5.58807 6.27889C5.63032 6.23142 5.63357 6.22979 5.78632 6.22979C6.20882 6.22979 6.68332 6.10376 7.21469 5.85008C7.36744 5.77807 7.61119 5.6635 7.75907 5.59804C8.14907 5.42291 8.20594 5.39345 8.21082 5.35254C8.21407 5.32471 8.20269 5.31326 8.16207 5.29689C8.01744 5.24615 7.25044 5.24943 6.91407 5.30344C6.75969 5.32799 6.52732 5.39018 6.41357 5.43601L6.35344 5.46056L6.43469 5.38691C6.55657 5.27561 6.86044 5.01866 6.97257 4.93355L7.07007 4.85826L7.20007 4.89591C7.51857 4.98756 7.98494 4.99083 8.67719 4.90409C9.21832 4.83699 9.51407 4.80589 9.62619 4.80425C9.72857 4.80425 9.82444 4.77643 9.83582 4.7437C9.85044 4.6946 9.30119 4.48511 8.95182 4.40655C8.85432 4.38363 8.70319 4.35745 8.61544 4.34599C8.41394 4.32144 7.93619 4.33617 7.79969 4.37054C7.74607 4.38363 7.70057 4.39182 7.69894 4.39018C7.69732 4.38854 7.75907 4.33781 7.83707 4.27889C7.91507 4.21997 8.07594 4.09722 8.19457 4.00556C8.31482 3.91555 8.41882 3.84517 8.42694 3.85008C8.46107 3.86972 8.78769 3.82062 8.91119 3.77643C9.17932 3.68151 9.47019 3.4671 9.7627 3.14959C10.1462 2.73224 10.3298 2.46056 10.2599 2.41473C10.2323 2.39673 10.2356 2.39673 10.1559 2.42619Z" fill="#737373"/>
<path d="M18.1348 3.80754C18.138 3.92865 18.1461 4.19052 18.151 4.38855C18.1624 4.82718 18.1851 5.0825 18.2258 5.24616C18.268 5.4131 18.4273 5.73225 18.5556 5.90246C18.7019 6.09886 19.0334 6.40983 19.0951 6.40983C19.2203 6.40983 19.2999 5.66024 19.2138 5.27235C19.1471 4.96302 18.9895 4.65696 18.7149 4.29854C18.6109 4.16433 18.2631 3.74043 18.1705 3.63732L18.125 3.58659L18.1348 3.80754Z" fill="#737373"/>
<path d="M19.9627 18.7944C18.9536 18.8664 18.6497 18.9041 18.2874 18.9957C17.8486 19.107 17.5301 19.2625 17.1466 19.5489C16.8931 19.7388 16.8249 19.8288 16.8671 19.9139C16.9289 20.0317 17.4391 20.143 17.8096 20.1185C18.237 20.089 18.7342 19.9254 19.1616 19.6733C19.6524 19.3836 20.356 18.9008 20.3804 18.837C20.3852 18.8239 20.3804 18.8059 20.3674 18.7977C20.3462 18.7846 20.1252 18.783 19.9627 18.7944Z" fill="#737373"/>
</g>
<defs>
<clipPath id="clip0">
<rect width="20.8" height="20" fill="white" transform="translate(1.6001 2.4)"/>
</clipPath>
</defs>
</svg>
