<svg width="24" height="24" viewBox="0 0 24 24" fill="none" xmlns="http://www.w3.org/2000/svg">
<path d="M12 0C5.37097 0 0 5.37097 0 12C0 18.629 5.37097 24 12 24C18.629 24 24 18.629 24 12C24 5.37097 18.629 0 12 0ZM12 21.6774C6.65323 21.6774 2.32258 17.3468 2.32258 12C2.32258 6.65323 6.65323 2.32258 12 2.32258C17.3468 2.32258 21.6774 6.65323 21.6774 12C21.6774 17.3468 17.3468 21.6774 12 21.6774ZM16.9258 8.99032L13.9161 12L16.9258 15.0097C17.1532 15.2371 17.1532 15.6048 16.9258 15.8323L15.8323 16.9258C15.6048 17.1532 15.2371 17.1532 15.0097 16.9258L12 13.9161L8.99032 16.9258C8.7629 17.1532 8.39516 17.1532 8.16774 16.9258L7.07419 15.8323C6.84677 15.6048 6.84677 15.2371 7.07419 15.0097L10.0839 12L7.07419 8.99032C6.84677 8.7629 6.84677 8.39516 7.07419 8.16774L8.16774 7.07419C8.39516 6.84677 8.7629 6.84677 8.99032 7.07419L12 10.0839L15.0097 7.07419C15.2371 6.84677 15.6048 6.84677 15.8323 7.07419L16.9258 8.16774C17.1532 8.39516 17.1532 8.7629 16.9258 8.99032Z" fill="black"/>
</svg>
