<svg width="24" height="24" viewBox="0 0 24 24" fill="none" xmlns="http://www.w3.org/2000/svg">
<path d="M22.8468 14.7984L20.85 13.6453C21.0515 12.5578 21.0515 11.4422 20.85 10.3547L22.8468 9.20156C23.0765 9.07031 23.1797 8.79843 23.1047 8.54531C22.5843 6.87656 21.6984 5.36718 20.5406 4.11093C20.3625 3.91875 20.0718 3.87187 19.8468 4.00312L17.85 5.15625C17.0109 4.43437 16.0453 3.87656 15 3.51093V1.20937C15 0.94687 14.8172 0.717183 14.5593 0.660933C12.839 0.276558 11.0765 0.295308 9.44059 0.660933C9.18278 0.717183 8.99997 0.94687 8.99997 1.20937V3.51562C7.95934 3.88593 6.99372 4.44375 6.14997 5.16093L4.15778 4.00781C3.92809 3.87656 3.64216 3.91875 3.46403 4.11562C2.30622 5.36718 1.42028 6.87656 0.899969 8.55C0.820282 8.80312 0.928094 9.075 1.15778 9.20625L3.15466 10.3594C2.95309 11.4469 2.95309 12.5625 3.15466 13.65L1.15778 14.8031C0.928094 14.9344 0.824969 15.2062 0.899969 15.4594C1.42028 17.1281 2.30622 18.6375 3.46403 19.8937C3.64216 20.0859 3.93278 20.1328 4.15778 20.0016L6.15466 18.8484C6.99372 19.5703 7.95934 20.1281 9.00466 20.4937V22.8C9.00466 23.0625 9.18747 23.2922 9.44528 23.3484C11.1656 23.7328 12.9281 23.7141 14.564 23.3484C14.8218 23.2922 15.0047 23.0625 15.0047 22.8V20.4937C16.0453 20.1234 17.0109 19.5656 17.8547 18.8484L19.8515 20.0016C20.0812 20.1328 20.3672 20.0906 20.5453 19.8937C21.7031 18.6422 22.589 17.1328 23.1093 15.4594C23.1797 15.2016 23.0765 14.9297 22.8468 14.7984ZM12 15.75C9.93278 15.75 8.24997 14.0672 8.24997 12C8.24997 9.93281 9.93278 8.25 12 8.25C14.0672 8.25 15.75 9.93281 15.75 12C15.75 14.0672 14.0672 15.75 12 15.75Z" fill="#262626"/>
</svg>
