<svg width="1200" height="427" viewBox="0 0 1200 427" fill="none" xmlns="http://www.w3.org/2000/svg">
<rect width="1199" height="274" fill="#28A7E1"/>
<path d="M1099.07 369.855C1160.17 364.78 1183.37 347.159 1199.08 320.244C1199.08 274 1198.5 217 1198.5 180.94H1099.01L918.486 180.94C857.387 180.94 797.454 178.973 737.327 178.973C677.2 178.973 649.073 178.384 573.179 177.878L407.875 176.775C350.174 176.39 262.949 175.405 202.544 175.405C141.445 175.405 71.5614 176.318 41.2895 176.318L0.166146 176.775L0.166175 213.5L0.166144 248L0.166164 296L0.166147 341.5L0.166168 425.804L39.5771 426.06C70.1267 426.06 130.254 426.06 190.928 400.495C252.018 375.313 311.988 323.608 372.804 308.575C432.509 292.968 493.755 314.033 554.715 313.745C614.426 314.033 675.518 292.968 736.613 283.105C796.32 272.86 857.281 272.86 918.528 298.425C978.247 323.608 1039.09 375.313 1099.07 369.855Z" fill="#28A7E1"/>
</svg>
