<svg width="32" height="32" viewBox="0 0 32 32" fill="none" xmlns="http://www.w3.org/2000/svg">
<rect width="32" height="32" rx="5" fill="#FFDD00"/>
<path d="M15.7348 12.0348L9.3336 17.3069V22.9971C9.3336 23.1444 9.39212 23.2857 9.4963 23.3899C9.60048 23.4941 9.74178 23.5526 9.88911 23.5526L13.7798 23.5426C13.9266 23.5418 14.0672 23.483 14.1708 23.3789C14.2744 23.2748 14.3325 23.1339 14.3325 22.987V19.664C14.3325 19.5167 14.391 19.3754 14.4952 19.2712C14.5994 19.167 14.7407 19.1085 14.888 19.1085H17.1101C17.2574 19.1085 17.3987 19.167 17.5029 19.2712C17.6071 19.3754 17.6656 19.5167 17.6656 19.664V22.9846C17.6654 23.0577 17.6796 23.1301 17.7074 23.1977C17.7352 23.2653 17.7761 23.3268 17.8277 23.3785C17.8793 23.4303 17.9406 23.4714 18.0081 23.4994C18.0756 23.5274 18.148 23.5419 18.2211 23.5419L22.1104 23.5526C22.2577 23.5526 22.399 23.4941 22.5032 23.3899C22.6074 23.2857 22.6659 23.1444 22.6659 22.9971V17.3031L16.266 12.0348C16.1908 11.9741 16.0971 11.941 16.0004 11.941C15.9038 11.941 15.8101 11.9741 15.7348 12.0348ZM25.8462 15.6182L22.9437 13.2256V8.41663C22.9437 8.30614 22.8998 8.20016 22.8216 8.12203C22.7435 8.0439 22.6375 8 22.527 8H20.5827C20.4722 8 20.3663 8.0439 20.2881 8.12203C20.21 8.20016 20.1661 8.30614 20.1661 8.41663V10.9376L17.0577 8.38018C16.7593 8.1347 16.385 8.00049 15.9987 8.00049C15.6124 8.00049 15.2381 8.1347 14.9398 8.38018L6.1512 15.6182C6.10901 15.653 6.07411 15.6959 6.04848 15.7442C6.02286 15.7926 6.00701 15.8455 6.00185 15.9C5.9967 15.9545 6.00232 16.0095 6.01842 16.0618C6.03451 16.1141 6.06076 16.1628 6.09565 16.2049L6.981 17.2812C7.0158 17.3235 7.0586 17.3586 7.10696 17.3843C7.15532 17.4101 7.20828 17.426 7.26282 17.4313C7.31735 17.4366 7.37239 17.431 7.42477 17.415C7.47716 17.3989 7.52587 17.3727 7.56811 17.3378L15.7348 10.6113C15.8101 10.5506 15.9038 10.5175 16.0004 10.5175C16.0971 10.5175 16.1908 10.5506 16.266 10.6113L24.4331 17.3378C24.4753 17.3727 24.5239 17.399 24.5762 17.4151C24.6286 17.4311 24.6835 17.4368 24.738 17.4316C24.7925 17.4265 24.8455 17.4106 24.8938 17.385C24.9422 17.3594 24.985 17.3245 25.0199 17.2823L25.9052 16.206C25.9401 16.1636 25.9662 16.1147 25.9821 16.0621C25.998 16.0096 26.0034 15.9544 25.9979 15.8998C25.9924 15.8452 25.9762 15.7922 25.9502 15.7438C25.9241 15.6955 25.8888 15.6528 25.8462 15.6182Z" fill="#FFF4AE"/>
</svg>
