<svg width="32" height="32" viewBox="0 0 32 32" fill="none" xmlns="http://www.w3.org/2000/svg">
<rect width="32" height="32" rx="5" fill="#4E9C27"/>
<path d="M24.3742 6.05782L11.8754 9.74884C11.6217 9.82854 11.4 9.98707 11.2426 10.2014C11.0851 10.4157 11.0002 10.6747 11 10.9406V21.152C10.5907 21.0526 10.1712 21.0012 9.75 20.9988C7.67969 20.9988 6 22.1184 6 23.4988C6 24.8793 7.67969 25.9988 9.75 25.9988C11.8203 25.9988 13.5 24.8793 13.5 23.4988V14.3707L23.5 11.441V18.6524C23.0907 18.5527 22.6712 18.5011 22.25 18.4988C20.1797 18.4988 18.5 19.6184 18.5 20.9988C18.5 22.3793 20.1797 23.4988 22.25 23.4988C24.3203 23.4988 26 22.3797 26 20.9988V7.24884C25.9998 7.0526 25.9534 6.85917 25.8646 6.68419C25.7758 6.50921 25.647 6.3576 25.4887 6.24163C25.3304 6.12566 25.147 6.04859 24.9534 6.01666C24.7598 5.98473 24.5614 5.99883 24.3742 6.05782Z" fill="#CEFFB6"/>
</svg>
